# File created by Blade
# Date/Time:  Wed Jan 21 17:57:11 2015
# Frame Rate: 120.000 fps
#------------------------------------------------------
:FULLY-SPECIFIED
:DEGREES
749
root 19.456658 28.606099 -15.541411 -91.092110 0.950261 -179.248515
Spine 72.183951 0.938812 0.566406
Head 180.512924 1.201725 181.685288
LeftShoulder 12.415075 -41.108462 15.319608
LeftArm -1.973703 10.670900 -9.125703
LeftForeArm 34.521564 -0.000000 73.907237
LeftHand -5.858889 0.000000 -29.217020
LeftHandThumb1 -26.253704 0.000000 33.147579
RightShoulder 7.464693 1.995555 -22.057970
RightArm 4.166296 30.238313 11.701572
RightForeArm -52.695967 -0.000000 72.665643
RightHand 5.447251 -0.000000 21.980098
RightHandThumb1 -24.326973 -0.000000 -32.862282
LeftUpLeg -100.385796 33.983998 -14.270009
LeftLeg -2.883851 -0.000000 0.000000
LeftFoot -7.964010 11.782851 -20.836216
LeftToeBase 34.306560 -0.000000 -0.000000
RightUpLeg -94.563678 -33.500158 5.144914
RightLeg -4.459857 -0.000000 0.000000
RightFoot -10.200219 1.234396 30.372215
RightToeBase 30.561969 -0.000000 -0.000000
750
root 19.459564 28.604924 -15.535836 -91.192851 0.972913 -179.227511
Spine 72.202957 0.922575 0.560739
Head 180.592297 1.240165 181.623590
LeftShoulder 12.451771 -41.115392 15.241458
LeftArm -1.889016 10.732082 -9.088012
LeftForeArm 34.267631 -0.000000 73.625508
LeftHand -6.259364 -0.000000 -29.141189
LeftHandThumb1 -26.253704 0.000000 33.147579
RightShoulder 7.479300 2.011799 -22.056048
RightArm 4.208835 30.316500 11.659090
RightForeArm -52.244547 -0.000000 72.607395
RightHand 5.652922 -0.000000 22.238138
RightHandThumb1 -24.326973 -0.000000 -32.862282
LeftUpLeg -100.330365 34.030131 -14.261560
LeftLeg -2.822500 -0.000000 0.000000
LeftFoot -7.981653 11.740370 -20.823844
LeftToeBase 34.316439 -0.000000 -0.000000
RightUpLeg -94.476198 -33.485554 5.072560
RightLeg -4.432112 -0.000000 0.000000
RightFoot -10.181276 1.266546 30.387544
RightToeBase 30.509882 -0.000000 -0.000000
751
root 19.462936 28.603898 -15.529746 -91.321647 0.998663 -179.207371
Spine 72.237390 0.913733 0.547794
Head 180.694103 1.243684 181.585223
LeftShoulder 12.478905 -41.128606 15.188537
LeftArm -1.793767 10.830421 -9.056894
LeftForeArm 34.046563 -0.000000 73.354840
LeftHand -6.279321 -0.000000 -29.040838
LeftHandThumb1 -26.253704 0.000000 33.147579
RightShoulder 7.461488 1.794085 -22.039874
RightArm 4.393869 30.475612 11.609079
RightForeArm -52.037160 -0.000000 72.484363
RightHand 5.650016 -0.000000 22.151659
RightHandThumb1 -24.326973 -0.000000 -32.862282
LeftUpLeg -100.223855 34.088494 -14.203923
LeftLeg -2.762685 -0.000000 0.000000
LeftFoot -8.006169 11.727642 -20.839733
LeftToeBase 34.381811 -0.000000 -0.000000
RightUpLeg -94.373868 -33.464751 5.008477
RightLeg -4.404947 -0.000000 0.000000
RightFoot -10.168339 1.296621 30.376189
RightToeBase 30.526759 -0.000000 -0.000000
752
root 19.464358 28.603085 -15.527392 -91.456194 1.045282 -179.201815
Spine 72.275071 0.886597 0.494482
Head 180.807091 1.188179 181.521800
LeftShoulder 12.486152 -41.136866 15.146469
LeftArm -1.676675 10.950122 -9.029291
LeftForeArm 33.874504 -0.000000 73.046223
LeftHand -6.411179 -0.000000 -28.926897
LeftHandThumb1 -26.253704 0.000000 33.147579
RightShoulder 7.480342 2.076525 -22.057956
RightArm 4.470945 30.157392 11.671367
RightForeArm -52.018659 -0.000000 72.329795
RightHand 5.649938 -0.000000 21.937430
RightHandThumb1 -24.326973 -0.000000 -32.862282
LeftUpLeg -100.022421 34.147600 -14.080396
LeftLeg -2.757604 -0.000000 0.000000
LeftFoot -8.022617 11.774381 -20.839272
LeftToeBase 34.302032 -0.000000 -0.000000
RightUpLeg -94.263313 -33.460681 4.938027
RightLeg -4.398797 -0.000000 0.000000
RightFoot -10.146321 1.319729 30.331606
RightToeBase 30.525648 -0.000000 -0.000000
753
root 19.463484 28.602668 -15.518650 -91.581085 1.089517 -179.205687
Spine 72.261042 0.848532 0.480113
Head 180.918924 1.045445 181.417147
LeftShoulder 12.486190 -41.041729 15.137493
LeftArm -1.520022 10.985335 -9.070020
LeftForeArm 33.715360 -0.000000 72.718367
LeftHand -6.302608 -0.000000 -28.831134
LeftHandThumb1 -26.253704 0.000000 33.147579
RightShoulder 7.465710 2.184193 -22.058920
RightArm 4.628403 29.934770 11.679699
RightForeArm -52.046682 -0.000000 72.149270
RightHand 5.611519 -0.000000 21.727226
RightHandThumb1 -24.326973 -0.000000 -32.862282
LeftUpLeg -99.950831 34.163124 -14.089012
LeftLeg -2.680905 -0.000000 0.000000
LeftFoot -8.040403 11.724115 -20.845100
LeftToeBase 34.312623 -0.000000 -0.000000
RightUpLeg -94.311024 -33.444586 5.022476
RightLeg -4.287906 -0.000000 0.000000
RightFoot -10.106313 1.443714 30.255913
RightToeBase 30.567398 -0.000000 -0.000000
754
root 19.463713 28.601776 -15.511434 -91.716667 1.141192 -179.215664
Spine 72.283294 0.829039 0.434110
Head 181.128976 0.995641 181.457777
LeftShoulder 12.410485 -41.110461 15.201714
LeftArm -1.359999 11.150896 -9.181910
LeftForeArm 33.479989 0.000000 72.404309
LeftHand -6.200512 -0.000000 -28.665240
LeftHandThumb1 -26.253704 0.000000 33.147579
RightShoulder 7.407464 2.294872 -22.026764
RightArm 4.853596 29.730730 11.706968
RightForeArm -52.054290 -0.000000 71.963914
RightHand 5.590104 0.000000 21.594451
RightHandThumb1 -24.326973 -0.000000 -32.862282
LeftUpLeg -99.914746 34.164065 -14.177163
LeftLeg -2.591080 -0.000000 0.000000
LeftFoot -8.051796 11.625464 -20.812454
LeftToeBase 34.375112 -0.000000 -0.000000
RightUpLeg -94.169286 -33.456990 4.891003
RightLeg -4.298299 -0.000000 0.000000
RightFoot -10.104286 1.397269 30.220913
RightToeBase 30.556676 -0.000000 -0.000000
755
root 19.467303 28.603323 -15.503067 -91.851607 1.160471 -179.195990
Spine 72.211097 0.841822 0.419076
Head 181.080637 0.829040 181.434083
LeftShoulder 12.501829 -41.108802 15.168554
LeftArm -1.249829 11.301668 -9.250924
LeftForeArm 33.513771 -0.000000 72.097557
LeftHand -5.911305 0.000000 -28.697085
LeftHandThumb1 -26.253704 0.000000 33.147579
RightShoulder 7.490356 2.089529 -22.010409
RightArm 5.034423 29.776115 11.675265
RightForeArm -51.962917 0.000000 71.734982
RightHand 5.555530 -0.000000 21.501170
RightHandThumb1 -24.326973 -0.000000 -32.862282
LeftUpLeg -99.856103 34.207211 -14.177129
LeftLeg -2.511994 -0.000000 0.000000
LeftFoot -8.027913 11.579908 -20.826948
LeftToeBase 34.343302 -0.000000 -0.000000
RightUpLeg -94.097174 -33.440657 4.871529
RightLeg -4.248008 -0.000000 0.000000
RightFoot -10.032097 1.509353 30.240657
RightToeBase 30.506521 -0.000000 -0.000000
